# xmcd
#
# Track frame offsets:
# 150
# 14515
# 31235
# 48377
# 58859
# 79889
# 95297
# 105932
# 130609
# 145131
#
# Disc length: 2094 seconds
#
#
# Revision: 0
# Processed by: cddbd v1.5.1PL2 Copyright (c) Steve Scherf et al.
# Submitted via: FreeRIP 2.943 
#
DISCID=79082c0a
DTITLE=Ricky Skaggs - Country Pride
DYEAR=1995
DGENRE=Country
TTITLE0=Highway 40 Blues
TTITLE1=A Wound Time Can't Erase
TTITLE2=Sweet Temptation
TTITLE3=Lonesome For You
TTITLE4=San Antonio Rose
TTITLE5=Window Up Above
TTITLE6=I Don't Care
TTITLE7=One Way Rider
TTITLE8=I Wonder If I Care As Much
TTITLE9=Let It Be You
EXTD=
EXTT0=
EXTT1=
EXTT2=
EXTT3=
EXTT4=
EXTT5=
EXTT6=
EXTT7=
EXTT8=
EXTT9=
PLAYORDER=
